<svg width="48" height="48" viewBox="0 0 48 48" fill="none" xmlns="http://www.w3.org/2000/svg">
<mask id="mask0" mask-type="alpha" maskUnits="userSpaceOnUse" x="0" y="0" width="48" height="48">
<path d="M42 0H6C2.68629 0 0 2.68629 0 6V42C0 45.3137 2.68629 48 6 48H42C45.3137 48 48 45.3137 48 42V6C48 2.68629 45.3137 0 42 0Z" fill="white"/>
</mask>
<g mask="url(#mask0)">
<path opacity="0.416101" d="M42 0H6C2.68629 0 0 2.68629 0 6V42C0 45.3137 2.68629 48 6 48H42C45.3137 48 48 45.3137 48 42V6C48 2.68629 45.3137 0 42 0Z" fill="#BCA1A1"/>
<path d="M48 0H0V48H48V0Z" fill="white"/>
</g>
<path d="M35.8691 16.0698C37.1439 16.7514 37.9564 18.0631 37.9987 19.5079C38.025 20.3492 38.0291 21.3665 37.9846 22.493L38.2495 22.5921C39.596 23.1025 41.1089 22.4947 41.7281 21.1946C42.3857 19.8241 41.8078 18.1799 40.4373 17.5222C40.3777 17.4937 40.3172 17.4672 40.2558 17.443C38.8224 16.8977 37.3576 16.4391 35.8691 16.0698Z" fill="#CA3F3C"/>
<path d="M12.1305 16.0698C10.8557 16.7514 10.0432 18.0631 10.0009 19.5079C9.97458 20.3492 9.97053 21.3665 10.015 22.493L9.75009 22.5921C8.40359 23.1025 6.89069 22.4947 6.27155 21.1946C5.6139 19.8241 6.1918 18.1799 7.56235 17.5222C7.62189 17.4937 7.68242 17.4672 7.74386 17.443C9.17718 16.8977 10.642 16.4391 12.1305 16.0698Z" fill="#F16566"/>
<path d="M14.2155 13.6601C15.557 13.6601 16.6445 12.5726 16.6445 11.2312C16.6445 9.88971 15.557 8.80225 14.2155 8.80225C12.8741 8.80225 11.7866 9.88971 11.7866 11.2312C11.7866 12.5726 12.8741 13.6601 14.2155 13.6601Z" fill="#F16566"/>
<path d="M36.0589 11.9353C36.483 10.6627 35.7952 9.28712 34.5226 8.86295C33.2499 8.43877 31.8743 9.1266 31.4502 10.3993C31.026 11.6719 31.7138 13.0475 32.9865 13.4717C34.2591 13.8958 35.6347 13.208 36.0589 11.9353Z" fill="#F16566"/>
<path d="M23.986 12.0844C25.3275 12.0844 26.415 10.9969 26.415 9.65548C26.415 8.31402 25.3275 7.22656 23.986 7.22656C22.6446 7.22656 21.5571 8.31402 21.5571 9.65548C21.5571 10.9969 22.6446 12.0844 23.986 12.0844Z" fill="#F16566"/>
<path d="M23.9858 19.9292V32.6543C24.3623 32.6543 24.6674 32.9594 24.6674 33.3358V41.6479C25.5653 41.4841 26.4456 41.2356 27.2965 40.9057L28.0428 20.3176C26.7099 20.0326 25.3486 19.9023 23.9858 19.9292Z" fill="#CA3F3C"/>
<path d="M37.0809 19.5626C37.0339 17.9811 36.0691 16.5722 34.6116 15.9566C29.3533 13.7623 23.9858 13.6592 23.9858 13.6592V18.5332C26.7469 18.454 29.4886 19.0175 31.9946 20.1794C32.3338 20.3527 32.4684 20.7681 32.2952 21.1073C32.1291 21.4324 31.7384 21.5718 31.404 21.4253C30.7536 21.1215 30.0817 20.866 29.3938 20.6608L28.6879 40.2559C29.6013 39.7661 30.4505 39.1649 31.216 38.4661L31.8712 30.8335C31.9036 30.4582 32.2341 30.1802 32.6094 30.2126C32.9847 30.245 33.2627 30.5755 33.2303 30.9508L32.7247 36.834C36.8605 31.5636 37.2084 23.5791 37.0809 19.5626Z" fill="#CA3F3C"/>
<path d="M16.554 21.4313C16.4655 21.4708 16.3698 21.4915 16.2729 21.492C15.892 21.4921 15.5831 21.1835 15.583 20.8026C15.5828 20.5311 15.7421 20.2847 15.9898 20.1734C18.5322 19.1409 21.2428 18.5849 23.9864 18.5332V13.6592C23.9864 13.6592 18.6189 13.7623 13.3606 15.9566C11.9031 16.5722 10.9383 17.9811 10.8913 19.5626C10.7638 23.5791 11.1117 31.5636 15.2475 36.832L14.7419 30.9488C14.6951 30.5753 14.96 30.2346 15.3335 30.1878C15.707 30.141 16.0477 30.4058 16.0945 30.7793C16.0966 30.7966 16.0981 30.814 16.099 30.8315L16.7563 38.4661C17.5214 39.1652 18.3706 39.7665 19.2843 40.2559L18.5805 20.7376C17.8907 20.9249 17.2138 21.1566 16.554 21.4313Z" fill="#F16566"/>
<path d="M19.9375 20.4085L20.6777 40.9077C21.5287 41.2376 22.409 41.4861 23.3068 41.6499V33.3378C23.3068 32.9614 23.612 32.6562 23.9884 32.6562L24.0207 19.9292C22.6582 19.9586 21.2693 20.1191 19.9375 20.4085Z" fill="#F16566"/>
<path d="M37.085 21.9512C34.8863 25.9286 32.1513 29.5849 28.957 32.8176L28.688 40.256C29.6014 39.7662 30.4505 39.165 31.216 38.4662L31.8713 30.8336C31.9037 30.4583 32.2341 30.1803 32.6094 30.2127C32.9847 30.2451 33.2627 30.5756 33.2303 30.9509L32.7247 36.8341C36.1487 32.4657 36.9758 26.2427 37.085 21.9512Z" fill="#962D2D"/>
<path d="M24.667 36.6731V41.6503C25.5649 41.4865 26.4452 41.238 27.2961 40.908L27.5388 34.1855C26.6152 35.0525 25.658 35.8817 24.667 36.6731Z" fill="#962D2D"/>
<path d="M20.5762 38.1477L20.6753 40.9083C21.5262 41.2382 22.4065 41.4867 23.3044 41.6505V37.5854C22.4091 37.8146 21.4997 38.0021 20.5762 38.1477Z" fill="#BC5055"/>
<path d="M16.8022 38.503C17.5544 39.187 18.3879 39.7759 19.2837 40.2565L19.213 38.3291C18.4188 38.4181 17.6153 38.4761 16.8022 38.503Z" fill="#BC5055"/>
</svg>
